<?xml version="1.0" encoding="UTF-8" standalone="no"?>
<!DOCTYPE svg PUBLIC "-//W3C//DTD SVG 1.1//EN"
 "http://www.w3.org/Graphics/SVG/1.1/DTD/svg11.dtd">
<!-- Generated by graphviz version 2.38.0 (20140413.2041)
 -->
<!-- Title: classes Pages: 1 -->
<svg width="295pt" height="1243pt"
 viewBox="0.00 0.00 295.00 1243.00" xmlns="http://www.w3.org/2000/svg" xmlns:xlink="http://www.w3.org/1999/xlink">
<g id="graph0" class="graph" transform="scale(1 1) rotate(0) translate(4 1239)">
<title>classes</title>
<polygon fill="white" stroke="none" points="-4,4 -4,-1239 291,-1239 291,4 -4,4"/>
<!-- 0 -->
<g id="node1" class="node"><title>0</title>
<polygon fill="none" stroke="black" points="0,-0.5 0,-69.5 287,-69.5 287,-0.5 0,-0.5"/>
<text text-anchor="middle" x="143.5" y="-54.3" font-family="Times New Roman,serif" font-size="14.00">antlr4.ParserRuleContext.InterpreterRuleContext</text>
<polyline fill="none" stroke="black" points="0,-46.5 287,-46.5 "/>
<text text-anchor="start" x="8" y="-31.3" font-family="Times New Roman,serif" font-size="14.00">ruleIndex</text>
<polyline fill="none" stroke="black" points="0,-23.5 287,-23.5 "/>
<text text-anchor="middle" x="143.5" y="-8.3" font-family="Times New Roman,serif" font-size="14.00"> </text>
</g>
<!-- 1 -->
<g id="node2" class="node"><title>1</title>
<polygon fill="none" stroke="black" points="11,-106.5 11,-460.5 276,-460.5 276,-106.5 11,-106.5"/>
<text text-anchor="middle" x="143.5" y="-445.3" font-family="Times New Roman,serif" font-size="14.00">antlr4.ParserRuleContext.ParserRuleContext</text>
<polyline fill="none" stroke="black" points="11,-437.5 276,-437.5 "/>
<text text-anchor="start" x="19" y="-422.3" font-family="Times New Roman,serif" font-size="14.00">children : list, NoneType</text>
<text text-anchor="start" x="19" y="-407.3" font-family="Times New Roman,serif" font-size="14.00">exception : NoneType</text>
<text text-anchor="start" x="19" y="-392.3" font-family="Times New Roman,serif" font-size="14.00">invokingState</text>
<text text-anchor="start" x="19" y="-377.3" font-family="Times New Roman,serif" font-size="14.00">parentCtx</text>
<text text-anchor="start" x="19" y="-362.3" font-family="Times New Roman,serif" font-size="14.00">start : NoneType</text>
<text text-anchor="start" x="19" y="-347.3" font-family="Times New Roman,serif" font-size="14.00">stop : NoneType</text>
<polyline fill="none" stroke="black" points="11,-339.5 276,-339.5 "/>
<text text-anchor="start" x="19" y="-324.3" font-family="Times New Roman,serif" font-size="14.00">addChild(child)</text>
<text text-anchor="start" x="19" y="-309.3" font-family="Times New Roman,serif" font-size="14.00">addErrorNode(badToken)</text>
<text text-anchor="start" x="19" y="-294.3" font-family="Times New Roman,serif" font-size="14.00">addTokenNode(token)</text>
<text text-anchor="start" x="19" y="-279.3" font-family="Times New Roman,serif" font-size="14.00">copyFrom(ctx)</text>
<text text-anchor="start" x="19" y="-264.3" font-family="Times New Roman,serif" font-size="14.00">enterRule(listener)</text>
<text text-anchor="start" x="19" y="-249.3" font-family="Times New Roman,serif" font-size="14.00">exitRule(listener)</text>
<text text-anchor="start" x="19" y="-234.3" font-family="Times New Roman,serif" font-size="14.00">getChild(i, ttype)</text>
<text text-anchor="start" x="19" y="-219.3" font-family="Times New Roman,serif" font-size="14.00">getChildCount()</text>
<text text-anchor="start" x="19" y="-204.3" font-family="Times New Roman,serif" font-size="14.00">getChildren(predicate)</text>
<text text-anchor="start" x="19" y="-189.3" font-family="Times New Roman,serif" font-size="14.00">getSourceInterval()</text>
<text text-anchor="start" x="19" y="-174.3" font-family="Times New Roman,serif" font-size="14.00">getToken(ttype, i)</text>
<text text-anchor="start" x="19" y="-159.3" font-family="Times New Roman,serif" font-size="14.00">getTokens(ttype)</text>
<text text-anchor="start" x="19" y="-144.3" font-family="Times New Roman,serif" font-size="14.00">getTypedRuleContext(ctxType, i)</text>
<text text-anchor="start" x="19" y="-129.3" font-family="Times New Roman,serif" font-size="14.00">getTypedRuleContexts(ctxType)</text>
<text text-anchor="start" x="19" y="-114.3" font-family="Times New Roman,serif" font-size="14.00">removeLastChild()</text>
</g>
<!-- 0&#45;&gt;1 -->
<g id="edge1" class="edge"><title>0&#45;&gt;1</title>
<path fill="none" stroke="black" d="M143.5,-69.5006C143.5,-77.4975 143.5,-86.5954 143.5,-96.4204"/>
<polygon fill="none" stroke="black" points="140,-96.4739 143.5,-106.474 147,-96.474 140,-96.4739"/>
</g>
<!-- 2 -->
<g id="node3" class="node"><title>2</title>
<polygon fill="none" stroke="black" points="46.5,-497.5 46.5,-806.5 240.5,-806.5 240.5,-497.5 46.5,-497.5"/>
<text text-anchor="middle" x="143.5" y="-791.3" font-family="Times New Roman,serif" font-size="14.00">antlr4.RuleContext.RuleContext</text>
<polyline fill="none" stroke="black" points="46.5,-783.5 240.5,-783.5 "/>
<text text-anchor="start" x="54.5" y="-768.3" font-family="Times New Roman,serif" font-size="14.00">EMPTY : NoneType</text>
<text text-anchor="start" x="54.5" y="-753.3" font-family="Times New Roman,serif" font-size="14.00">invokingState : int</text>
<text text-anchor="start" x="54.5" y="-738.3" font-family="Times New Roman,serif" font-size="14.00">parentCtx : NoneType</text>
<polyline fill="none" stroke="black" points="46.5,-730.5 240.5,-730.5 "/>
<text text-anchor="start" x="54.5" y="-715.3" font-family="Times New Roman,serif" font-size="14.00">accept(visitor)</text>
<text text-anchor="start" x="54.5" y="-700.3" font-family="Times New Roman,serif" font-size="14.00">depth()</text>
<text text-anchor="start" x="54.5" y="-685.3" font-family="Times New Roman,serif" font-size="14.00">getAltNumber()</text>
<text text-anchor="start" x="54.5" y="-670.3" font-family="Times New Roman,serif" font-size="14.00">getChild(i)</text>
<text text-anchor="start" x="54.5" y="-655.3" font-family="Times New Roman,serif" font-size="14.00">getChildCount()</text>
<text text-anchor="start" x="54.5" y="-640.3" font-family="Times New Roman,serif" font-size="14.00">getChildren()</text>
<text text-anchor="start" x="54.5" y="-625.3" font-family="Times New Roman,serif" font-size="14.00">getPayload()</text>
<text text-anchor="start" x="54.5" y="-610.3" font-family="Times New Roman,serif" font-size="14.00">getRuleContext()</text>
<text text-anchor="start" x="54.5" y="-595.3" font-family="Times New Roman,serif" font-size="14.00">getRuleIndex()</text>
<text text-anchor="start" x="54.5" y="-580.3" font-family="Times New Roman,serif" font-size="14.00">getSourceInterval()</text>
<text text-anchor="start" x="54.5" y="-565.3" font-family="Times New Roman,serif" font-size="14.00">getText()</text>
<text text-anchor="start" x="54.5" y="-550.3" font-family="Times New Roman,serif" font-size="14.00">isEmpty()</text>
<text text-anchor="start" x="54.5" y="-535.3" font-family="Times New Roman,serif" font-size="14.00">setAltNumber(altNumber)</text>
<text text-anchor="start" x="54.5" y="-520.3" font-family="Times New Roman,serif" font-size="14.00">toString(ruleNames, stop)</text>
<text text-anchor="start" x="54.5" y="-505.3" font-family="Times New Roman,serif" font-size="14.00">toStringTree(ruleNames, recog)</text>
</g>
<!-- 1&#45;&gt;2 -->
<g id="edge2" class="edge"><title>1&#45;&gt;2</title>
<path fill="none" stroke="black" d="M143.5,-460.504C143.5,-469.439 143.5,-478.397 143.5,-487.293"/>
<polygon fill="none" stroke="black" points="140,-487.305 143.5,-497.305 147,-487.306 140,-487.305"/>
</g>
<!-- 4 -->
<g id="node5" class="node"><title>4</title>
<polygon fill="none" stroke="black" points="63,-843.5 63,-913.5 224,-913.5 224,-843.5 63,-843.5"/>
<text text-anchor="middle" x="143.5" y="-898.3" font-family="Times New Roman,serif" font-size="14.00">antlr4.tree.Tree.RuleNode</text>
<polyline fill="none" stroke="black" points="63,-890.5 224,-890.5 "/>
<polyline fill="none" stroke="black" points="63,-866.5 224,-866.5 "/>
<text text-anchor="middle" x="143.5" y="-851.3" font-family="Times New Roman,serif" font-size="14.00"> </text>
</g>
<!-- 2&#45;&gt;4 -->
<g id="edge3" class="edge"><title>2&#45;&gt;4</title>
<path fill="none" stroke="black" d="M143.5,-806.775C143.5,-816.066 143.5,-824.915 143.5,-833.012"/>
<polygon fill="none" stroke="black" points="140,-833.198 143.5,-843.198 147,-833.198 140,-833.198"/>
</g>
<!-- 3 -->
<g id="node4" class="node"><title>3</title>
<polygon fill="none" stroke="black" points="63,-950.5 63,-1020.5 224,-1020.5 224,-950.5 63,-950.5"/>
<text text-anchor="middle" x="143.5" y="-1005.3" font-family="Times New Roman,serif" font-size="14.00">antlr4.tree.Tree.ParseTree</text>
<polyline fill="none" stroke="black" points="63,-997.5 224,-997.5 "/>
<polyline fill="none" stroke="black" points="63,-973.5 224,-973.5 "/>
<text text-anchor="middle" x="143.5" y="-958.3" font-family="Times New Roman,serif" font-size="14.00"> </text>
</g>
<!-- 5 -->
<g id="node6" class="node"><title>5</title>
<polygon fill="none" stroke="black" points="59.5,-1057.5 59.5,-1127.5 227.5,-1127.5 227.5,-1057.5 59.5,-1057.5"/>
<text text-anchor="middle" x="143.5" y="-1112.3" font-family="Times New Roman,serif" font-size="14.00">antlr4.tree.Tree.SyntaxTree</text>
<polyline fill="none" stroke="black" points="59.5,-1104.5 227.5,-1104.5 "/>
<polyline fill="none" stroke="black" points="59.5,-1080.5 227.5,-1080.5 "/>
<text text-anchor="middle" x="143.5" y="-1065.3" font-family="Times New Roman,serif" font-size="14.00"> </text>
</g>
<!-- 3&#45;&gt;5 -->
<g id="edge4" class="edge"><title>3&#45;&gt;5</title>
<path fill="none" stroke="black" d="M143.5,-1020.59C143.5,-1029.03 143.5,-1038.19 143.5,-1047.04"/>
<polygon fill="none" stroke="black" points="140,-1047.22 143.5,-1057.22 147,-1047.22 140,-1047.22"/>
</g>
<!-- 4&#45;&gt;3 -->
<g id="edge5" class="edge"><title>4&#45;&gt;3</title>
<path fill="none" stroke="black" d="M143.5,-913.59C143.5,-922.026 143.5,-931.188 143.5,-940.038"/>
<polygon fill="none" stroke="black" points="140,-940.221 143.5,-950.221 147,-940.221 140,-940.221"/>
</g>
<!-- 6 -->
<g id="node7" class="node"><title>6</title>
<polygon fill="none" stroke="black" points="78.5,-1164.5 78.5,-1234.5 208.5,-1234.5 208.5,-1164.5 78.5,-1164.5"/>
<text text-anchor="middle" x="143.5" y="-1219.3" font-family="Times New Roman,serif" font-size="14.00">antlr4.tree.Tree.Tree</text>
<polyline fill="none" stroke="black" points="78.5,-1211.5 208.5,-1211.5 "/>
<polyline fill="none" stroke="black" points="78.5,-1187.5 208.5,-1187.5 "/>
<text text-anchor="middle" x="143.5" y="-1172.3" font-family="Times New Roman,serif" font-size="14.00"> </text>
</g>
<!-- 5&#45;&gt;6 -->
<g id="edge6" class="edge"><title>5&#45;&gt;6</title>
<path fill="none" stroke="black" d="M143.5,-1127.59C143.5,-1136.03 143.5,-1145.19 143.5,-1154.04"/>
<polygon fill="none" stroke="black" points="140,-1154.22 143.5,-1164.22 147,-1154.22 140,-1154.22"/>
</g>
</g>
</svg>
